<svg xmlns="http://www.w3.org/2000/svg" width="900" height="540" viewBox="0 0 900 540" font-family="-apple-system, 'Segoe UI', Helvetica, Arial, sans-serif">
  <!-- Browser chrome -->
  <rect width="900" height="540" rx="10" fill="#e8eaed"/>
  <path d="M0 10a10 10 0 0 1 10-10h880a10 10 0 0 1 10 10v36H0z" fill="#dee1e6"/>
  <circle cx="20" cy="23" r="6" fill="#ff5f57"/>
  <circle cx="40" cy="23" r="6" fill="#febc2e"/>
  <circle cx="60" cy="23" r="6" fill="#28c840"/>
  <rect x="84" y="10" width="620" height="26" rx="13" fill="#ffffff"/>
  <text x="100" y="27" font-size="12" fill="#5f6368">file:///Users/client/Downloads/q3-proposal.commented.html</text>
  <text x="884" y="27" text-anchor="end" font-size="10" font-style="italic" fill="#80868b">example output</text>

  <!-- Document canvas -->
  <rect x="0" y="46" width="640" height="494" fill="#fbf8f3"/>

  <text x="48" y="110" font-size="26" font-weight="bold" fill="#2b2620">Q3 Website Redesign — Proposal</text>
  <text x="48" y="134" font-size="13" fill="#8a8177">Prepared for Meridian Co. · Draft v2</text>

  <text x="48" y="178" font-size="15" font-weight="bold" fill="#2b2620">Scope</text>
  <text x="48" y="202" font-size="13" fill="#4a443c">We will redesign the marketing site's five core pages, migrate the</text>
  <!-- highlighted text-range comment anchor -->
  <rect x="46" y="210" width="330" height="19" rx="3" fill="#ffe08a" opacity="0.75"/>
  <text x="48" y="224" font-size="13" fill="#4a443c"><tspan font-weight="bold">CMS to a headless setup by August 15</tspan><tspan>, and hand off a component</tspan></text>
  <text x="48" y="246" font-size="13" fill="#4a443c">library your team can extend without us.</text>

  <text x="48" y="290" font-size="15" font-weight="bold" fill="#2b2620">Timeline &amp; investment</text>
  <!-- element-anchored block, outlined -->
  <rect x="40" y="304" width="560" height="88" rx="6" fill="none" stroke="#e4a11b" stroke-width="2" stroke-dasharray="6 4"/>
  <text x="48" y="328" font-size="13" fill="#4a443c">Phase 1 — Discovery and IA: 2 weeks</text>
  <text x="48" y="350" font-size="13" fill="#4a443c">Phase 2 — Design system and page templates: 4 weeks</text>
  <text x="48" y="372" font-size="13" fill="#4a443c">Phase 3 — Build, migrate, QA and launch: 5 weeks</text>

  <!-- free pin -->
  <circle cx="590" cy="222" r="11" fill="#d9534f"/>
  <text x="590" y="226" text-anchor="middle" font-size="11" font-weight="bold" fill="#ffffff">1</text>

  <!-- comment mode toggle -->
  <rect x="410" y="480" width="190" height="38" rx="19" fill="#2b2620"/>
  <circle cx="432" cy="499" r="8" fill="#ffe08a"/>
  <text x="448" y="504" font-size="13" fill="#ffffff">Comment mode: ON</text>

  <!-- Right rail -->
  <rect x="640" y="46" width="260" height="494" fill="#ffffff"/>
  <line x1="640" y1="46" x2="640" y2="540" stroke="#e0dcd4" stroke-width="1"/>
  <text x="660" y="76" font-size="13" font-weight="bold" fill="#2b2620">Comments (2)</text>
  <rect x="806" y="60" width="78" height="24" rx="12" fill="#2b2620"/>
  <text x="845" y="76" text-anchor="middle" font-size="11" fill="#ffffff">Export</text>

  <!-- comment card 1 -->
  <rect x="654" y="96" width="232" height="118" rx="8" fill="#fbf8f3" stroke="#eee9e0"/>
  <circle cx="674" cy="118" r="10" fill="#e4a11b"/>
  <text x="674" y="122" text-anchor="middle" font-size="10" font-weight="bold" fill="#fff">D</text>
  <text x="692" y="115" font-size="12" font-weight="bold" fill="#2b2620">Dana (client)</text>
  <text x="692" y="129" font-size="10" fill="#8a8177">text · "CMS to a headless setup…"</text>
  <text x="668" y="152" font-size="12" fill="#4a443c">Aug 15 lands during our</text>
  <text x="668" y="168" font-size="12" fill="#4a443c">campaign freeze — can we</text>
  <text x="668" y="184" font-size="12" fill="#4a443c">push migration to Sept?</text>
  <text x="668" y="205" font-size="11" fill="#b08830">↳ Reply</text>

  <!-- comment card 2, with reviewer reply -->
  <rect x="654" y="226" width="232" height="150" rx="8" fill="#fbf8f3" stroke="#eee9e0"/>
  <circle cx="674" cy="248" r="10" fill="#d9534f"/>
  <text x="674" y="252" text-anchor="middle" font-size="10" font-weight="bold" fill="#fff">D</text>
  <text x="692" y="245" font-size="12" font-weight="bold" fill="#2b2620">Dana (client)</text>
  <text x="692" y="259" font-size="10" fill="#8a8177">pin #1 · near "component library"</text>
  <text x="668" y="282" font-size="12" fill="#4a443c">Does the handoff include</text>
  <text x="668" y="298" font-size="12" fill="#4a443c">Figma files too?</text>
  <line x1="668" y1="310" x2="872" y2="310" stroke="#eee9e0"/>
  <circle cx="676" cy="330" r="8" fill="#5b8def"/>
  <text x="676" y="334" text-anchor="middle" font-size="9" font-weight="bold" fill="#fff">S</text>
  <text x="690" y="334" font-size="11" font-weight="bold" fill="#2b2620">Sean (reviewer)</text>
  <text x="668" y="352" font-size="11" fill="#4a443c">Yes — Figma library ships with</text>
  <text x="668" y="366" font-size="11" fill="#4a443c">the component handoff.</text>

  <text x="660" y="404" font-size="11" fill="#8a8177">Stage: returned · reply-only</text>
  <text x="660" y="422" font-size="11" fill="#8a8177">Anchors: element · text · image · pin</text>
</svg>
